<svg width="32" height="37" viewBox="0 0 32 37" fill="none" xmlns="http://www.w3.org/2000/svg">
<g id="Group 2013">
<g id="Group 14">
<path id="Vector" d="M8.67163 22.3247C8.70603 22.3832 8.71822 22.4527 8.70588 22.5199C8.69354 22.5871 8.65754 22.6473 8.60473 22.689L4.10985 25.8836C4.05558 25.92 3.99038 25.9353 3.92605 25.9268C3.85659 25.9146 3.79444 25.8753 3.75271 25.8171C3.71831 25.7586 3.70612 25.6891 3.71845 25.6219C3.73079 25.5547 3.76679 25.4945 3.81961 25.4528L8.31448 22.2582C8.37153 22.2222 8.43955 22.2091 8.50547 22.2213C8.57139 22.2336 8.63057 22.2704 8.67163 22.3247Z" fill="#FFB600"/>
<path id="Vector_2" d="M6.8734 15.7844C6.87098 15.8187 6.86195 15.8521 6.84682 15.8828C6.83169 15.9134 6.81076 15.9407 6.78526 15.9629C6.75976 15.9852 6.73018 16.0021 6.69827 16.0125C6.66635 16.023 6.63273 16.0268 6.59935 16.0238L0.491118 15.4948C0.472453 15.4932 0.454054 15.4893 0.436364 15.483C0.382097 15.4629 0.335493 15.4255 0.303304 15.3764C0.271116 15.3273 0.255018 15.269 0.257339 15.2099C0.259787 15.175 0.269016 15.141 0.284489 15.1098C0.299961 15.0787 0.32136 15.051 0.347425 15.0285C0.37349 15.006 0.403697 14.989 0.436255 14.9787C0.468813 14.9683 0.503066 14.9647 0.536999 14.9681L6.64167 15.5014C6.70896 15.5075 6.77113 15.5408 6.81456 15.5938C6.85799 15.6469 6.87914 15.7154 6.8734 15.7844Z" fill="#FFB600"/>
<path id="Vector_3" d="M9.42594 8.61391C9.36333 8.60503 9.30616 8.57266 9.26548 8.52306L6.59675 5.24054C6.55316 5.18719 6.53203 5.11828 6.538 5.04896C6.54398 4.97964 6.57657 4.9156 6.6286 4.87091C6.68064 4.82623 6.74786 4.80456 6.81547 4.81069C6.88309 4.81681 6.94556 4.85022 6.98915 4.90357L9.66733 8.18342C9.68932 8.20964 9.70598 8.24011 9.7163 8.27304C9.72663 8.30596 9.73042 8.34067 9.72745 8.37512C9.72448 8.40957 9.71481 8.44306 9.69902 8.47362C9.68322 8.50418 9.66161 8.53118 9.63547 8.55304C9.60729 8.57874 9.5738 8.59756 9.53752 8.6081C9.50123 8.61864 9.46308 8.62063 9.42594 8.61391Z" fill="#FFB600"/>
<path id="Vector_4" d="M17.6345 6.63803C17.6012 6.63303 17.5693 6.62134 17.5404 6.60363C17.5116 6.58593 17.4864 6.56256 17.4664 6.53486C17.4464 6.50717 17.4319 6.4757 17.4238 6.44225C17.4156 6.4088 17.414 6.37404 17.419 6.33996L18.2008 0.954786C18.2056 0.920892 18.2169 0.888308 18.234 0.858922C18.2512 0.829535 18.2739 0.803928 18.3008 0.783583C18.3276 0.763238 18.3582 0.748558 18.3906 0.740394C18.4231 0.732229 18.4568 0.730742 18.4898 0.736018C18.523 0.741024 18.555 0.752716 18.5839 0.77042C18.6127 0.788124 18.6379 0.811488 18.6579 0.839183C18.6779 0.866877 18.6924 0.898355 18.7005 0.931803C18.7086 0.965251 18.7102 1.00001 18.7052 1.0341L17.917 6.40986C17.9088 6.47841 17.8745 6.54085 17.8216 6.58359C17.7687 6.62632 17.7014 6.64589 17.6345 6.63803Z" fill="#FFB600"/>
<path id="Vector_5" d="M25.3302 10.9861C25.2813 11.0133 25.2251 11.023 25.1703 11.0137C25.1311 11.0087 25.0937 10.9941 25.0612 10.971C25.0287 10.948 25.0022 10.9172 24.9838 10.8813C24.9673 10.8515 24.9568 10.8186 24.9528 10.7845C24.9488 10.7504 24.9515 10.7159 24.9606 10.6828C24.9698 10.6498 24.9852 10.619 25.0061 10.5922C25.027 10.5654 25.0528 10.543 25.0822 10.5265L30.3984 7.50834C30.4279 7.48912 30.4608 7.47629 30.4953 7.47064C30.5298 7.46499 30.565 7.46665 30.5988 7.47551C30.6326 7.48437 30.6643 7.50024 30.6919 7.52215C30.7195 7.54406 30.7425 7.57153 30.7593 7.60288C30.7761 7.63422 30.7865 7.66877 30.7898 7.7044C30.7931 7.74002 30.7893 7.77597 30.7785 7.81001C30.7677 7.84404 30.7503 7.87545 30.7272 7.9023C30.7041 7.92915 30.6759 7.95086 30.6443 7.9661L25.3302 10.9861Z" fill="#FFB600"/>
<path id="Vector_6" d="M30.817 19.6506L25.57 18.8507C25.5343 18.8491 25.4993 18.8397 25.4673 18.8233C25.4353 18.8069 25.407 18.7838 25.3843 18.7554C25.3616 18.7271 25.345 18.6942 25.3354 18.6588C25.3259 18.6235 25.3237 18.5865 25.3291 18.5502C25.3344 18.514 25.3471 18.4792 25.3663 18.4483C25.3856 18.4174 25.4109 18.391 25.4408 18.3708C25.4706 18.3505 25.5043 18.337 25.5396 18.3309C25.5748 18.3249 25.611 18.3265 25.6456 18.3357L30.8926 19.1356C30.9283 19.1373 30.9633 19.1466 30.9953 19.163C31.0273 19.1794 31.0556 19.2026 31.0783 19.2309C31.101 19.2592 31.1176 19.2921 31.1272 19.3275C31.1367 19.3628 31.1388 19.3998 31.1335 19.4361C31.1282 19.4724 31.1155 19.5071 31.0963 19.538C31.077 19.5689 31.0517 19.5953 31.0218 19.6156C30.992 19.6358 30.9583 19.6494 30.923 19.6554C30.8878 19.6614 30.8516 19.6598 30.817 19.6506Z" fill="#FFB600"/>
<path id="Vector_7" d="M25.4011 29.1055C25.3447 29.1501 25.2735 29.1702 25.2028 29.1616C25.1396 29.1512 25.0821 29.1184 25.0402 29.0689L21.7463 24.9735C21.7222 24.9475 21.7037 24.9166 21.6917 24.8829C21.6798 24.8492 21.6747 24.8134 21.6768 24.7776C21.6789 24.7418 21.6882 24.7068 21.7041 24.6749C21.7199 24.6429 21.742 24.6146 21.7689 24.5918C21.7959 24.5689 21.8271 24.552 21.8607 24.542C21.8943 24.532 21.9296 24.5292 21.9643 24.5338C21.9989 24.5384 22.0324 24.5502 22.0624 24.5685C22.0925 24.5869 22.1185 24.6114 22.139 24.6405L25.4368 28.7356C25.4763 28.7909 25.4945 28.8593 25.4879 28.9275C25.4813 28.9958 25.4504 29.0591 25.4011 29.1055Z" fill="#FFB600"/>
</g>
<path id="Vector_8" d="M12.9902 14.7644C12.963 14.7172 12.9248 14.6776 12.8791 14.6494C12.8334 14.6211 12.7816 14.6049 12.7284 14.6024H12.6944C12.6378 14.6022 12.5826 14.6196 12.5359 14.6524C12.4892 14.6852 12.4531 14.7317 12.4325 14.786C12.3787 14.9071 12.3607 15.0419 12.3807 15.1735C12.4008 15.3051 12.4579 15.4277 12.5451 15.526C12.676 15.6555 12.8507 15.7272 13.0321 15.7259C13.1165 15.4088 13.1018 15.0724 12.9902 14.7644ZM15.5194 21.1246C15.4538 20.9914 15.363 20.8731 15.2524 20.7766C15.1418 20.6801 15.0136 20.6075 14.8754 20.5628C14.8388 20.5589 14.8019 20.5589 14.7654 20.5628C14.6912 20.5576 14.6171 20.5734 14.5511 20.6087C14.485 20.6439 14.4296 20.6972 14.391 20.7627C14.3462 20.8421 14.3242 20.9329 14.3275 21.0247C14.3307 21.1165 14.3591 21.2054 14.4093 21.2812C14.4928 21.3696 14.6003 21.4298 14.7176 21.4539C14.8349 21.478 14.9565 21.4649 15.0665 21.4163C15.2398 21.362 15.396 21.2613 15.5194 21.1246ZM15.8624 13.3681C15.8624 13.3384 15.8284 13.2574 15.6896 13.2574C15.6445 13.2581 15.5997 13.2644 15.5561 13.2763C15.4618 13.2979 15.4723 13.4546 15.4985 13.5815C15.5365 13.7561 15.6001 13.9236 15.687 14.0784C15.7613 13.9784 15.8151 13.8639 15.8453 13.7418C15.8754 13.6197 15.8813 13.4926 15.8624 13.3681ZM16.5301 27.004C16.4254 26.9662 16.3101 26.9284 16.1871 26.8906C14.5376 26.3937 13.0269 26.7907 12.765 27.0634C12.8645 27.1283 13.2049 27.2741 14.2391 27.2849C15.0125 27.3195 15.7861 27.2246 16.5301 27.004ZM16.7186 30.6797C16.0903 30.4008 15.4127 30.2592 14.7287 30.2638C13.6422 30.2422 13.2101 30.4582 13.1133 30.5338C13.2154 30.6392 13.7155 30.9092 15.1215 30.966C15.6684 31.0046 16.2163 30.9064 16.7186 30.6797ZM9.89021 20.1685C9.06023 18.6777 8.19883 17.1383 8.62036 14.3377C9.31682 9.69518 12.7389 8.08556 15.7263 8.12607C16.7522 8.14884 17.7632 8.38411 18.6992 8.81791C19.6352 9.2517 20.4771 9.87516 21.1748 10.6512C21.7611 11.3395 22.1982 12.149 22.457 13.0255C22.7157 13.902 22.79 14.8254 22.6751 15.734C22.4316 18.1646 21.3031 19.8985 20.3972 21.3028C19.7689 22.2751 19.2243 23.115 19.1352 23.9198C19.0017 25.1162 18.6875 26.2613 17.6533 26.9878C18.245 27.3956 18.3262 27.798 18.2974 28.0681C18.2728 28.2271 18.2154 28.3788 18.1291 28.5129C18.0429 28.6471 17.9297 28.7607 17.7973 28.8459C17.9743 29.0758 18.067 29.3627 18.0591 29.6561C18.0281 30.0381 17.8601 30.3944 17.5879 30.6554C17.7762 30.8198 17.9166 31.0348 17.9937 31.2765C18.0434 31.4383 18.0401 31.6125 17.9842 31.7721C17.9284 31.9317 17.8231 32.0679 17.6847 32.1597C17.4185 32.3231 17.1243 32.4322 16.8181 32.4811C16.0614 32.6593 15.3466 32.824 15.3414 34.5039C15.3414 35.8542 15.3178 35.8846 15.2681 36.0255H14.7785C14.8282 35.7685 14.8492 35.6949 14.8518 34.458C14.8727 32.427 15.9331 32.1759 16.7081 31.9949C16.9516 31.9571 17.1865 31.8748 17.402 31.7519C17.4547 31.7207 17.4953 31.6716 17.5168 31.613C17.5383 31.5544 17.5394 31.4898 17.5198 31.4305C17.4546 31.2577 17.3417 31.1084 17.1951 31.0011C16.5616 31.3814 15.8316 31.5555 15.1005 31.5007C14.1606 31.4629 12.587 31.2873 12.608 30.55C12.608 30.0423 13.417 29.7533 14.7366 29.7776C15.5892 29.7644 16.4312 29.9734 17.1846 30.3853C17.292 30.2963 17.3812 30.1863 17.4472 30.0616C17.5133 29.9369 17.5548 29.8001 17.5695 29.6588C17.5751 29.4587 17.5036 29.2644 17.3705 29.1187C16.6325 29.4244 15.8483 29.5945 15.0534 29.621C14.2679 29.675 12.9012 29.6804 12.5739 29.1322C12.5295 29.0594 12.506 28.9751 12.506 28.8891C12.506 28.8031 12.5295 28.7188 12.5739 28.646C12.8619 28.1491 14.0585 27.8871 15.6216 27.979C16.2595 27.9854 16.8834 28.1723 17.4255 28.5191C17.6612 28.3679 17.7921 28.2058 17.8078 28.0519C17.8235 27.8979 17.6533 27.5874 17.1585 27.3146C16.462 27.6495 15.5194 27.8547 14.2313 27.825C12.6865 27.8061 12.3775 27.5064 12.2807 27.2849C12.2474 27.2032 12.2383 27.1132 12.2547 27.0262C12.271 26.9391 12.3119 26.8591 12.3723 26.7961C12.7965 26.2937 14.5455 25.9048 16.3232 26.4396C16.6104 26.5238 16.8913 26.6294 17.1637 26.7556C18.1482 26.1776 18.5016 25.1891 18.6456 23.9009C18.7477 22.9773 19.3211 22.0887 19.9862 21.0625C20.9078 19.6365 21.9525 18.0188 22.1855 15.7232C22.2927 14.8845 22.225 14.032 21.9871 13.2225C21.7491 12.413 21.3463 11.6653 20.8057 11.0293C20.1569 10.2986 19.3721 9.71008 18.4981 9.29897C17.6241 8.88786 16.6787 8.66256 15.7184 8.6365C14.3831 8.6149 9.92163 8.97409 9.10474 14.416C8.70938 17.0384 9.48962 18.4374 10.317 19.9174C10.8223 20.8248 11.3486 21.7647 11.5973 23.0043C11.846 24.2439 12.3147 24.9839 13.0007 25.2702C13.6867 25.5564 14.6423 25.3458 15.6006 24.676C16.1845 24.2709 16.1871 23.1933 16.0143 22.3939C15.9516 22.116 15.864 21.8448 15.7525 21.5837C15.5898 21.7327 15.3964 21.8417 15.1869 21.9024C14.6842 22.032 14.2548 21.9024 14.0139 21.5783C13.9036 21.4231 13.8403 21.2377 13.8319 21.0455C13.8235 20.8533 13.8704 20.6628 13.9668 20.498C14.0677 20.3314 14.2156 20.2007 14.3907 20.1235C14.5658 20.0462 14.7596 20.0261 14.946 20.0659C15.1303 20.1096 15.3043 20.1906 15.458 20.3042C15.6117 20.4178 15.7421 20.5617 15.8415 20.7276C16.5248 19.7067 17.0747 17.7892 17.4753 16.4064C17.5172 16.2579 17.5591 16.1175 17.5957 15.9851C17.2211 15.952 16.8569 15.8412 16.5248 15.6592C16.1928 15.4773 15.8998 15.2281 15.6634 14.9264C15.2329 15.3656 14.7268 15.7182 14.171 15.9662C13.935 16.0774 13.6872 16.1598 13.4327 16.212C13.3629 16.4816 13.2754 16.7459 13.1709 17.0033C13.1611 17.0374 13.1446 17.069 13.1223 17.0961C13.0999 17.1231 13.0723 17.1451 13.0413 17.1604C13.0102 17.1758 12.9764 17.1843 12.9419 17.1853C12.9075 17.1864 12.8732 17.1799 12.8413 17.1664C12.8095 17.1529 12.7807 17.1327 12.7569 17.107C12.7331 17.0813 12.7148 17.0508 12.7031 17.0173C12.6915 16.9838 12.6868 16.9482 12.6893 16.9128C12.6919 16.8774 12.7016 16.8429 12.7179 16.8115C12.7906 16.6234 12.8536 16.4314 12.9064 16.2363C12.7228 16.2237 12.5451 16.1645 12.389 16.064C12.2329 15.9635 12.1032 15.8248 12.0115 15.6602C11.9198 15.4957 11.869 15.3103 11.8634 15.1206C11.8578 14.9309 11.8977 14.7426 11.9796 14.5727C12.0453 14.4192 12.1572 14.2917 12.2987 14.209C12.4401 14.1263 12.6037 14.0928 12.765 14.1135C12.8943 14.1241 13.0192 14.1664 13.1294 14.2369C13.2396 14.3074 13.3319 14.404 13.3987 14.5186C13.5593 14.8772 13.6043 15.2795 13.527 15.6664C13.6749 15.6243 13.8193 15.5701 13.959 15.5044C14.483 15.2748 14.9575 14.9396 15.3545 14.5186C15.1928 14.2716 15.0741 13.9975 15.0036 13.7084C14.8937 13.1467 15.1529 12.8739 15.433 12.8064C15.9436 12.6876 16.2185 12.9468 16.3154 13.2304C16.4306 13.5869 16.3154 14.0649 15.9724 14.551C16.3913 15.075 17.0197 15.5287 17.7371 15.4882C17.9596 14.7509 18.1115 14.3836 18.3 14.2486C18.4172 14.1581 18.5582 14.1063 18.7045 14.1C18.8508 14.0938 18.9955 14.1333 19.1195 14.2135C19.2351 14.2956 19.3243 14.4114 19.3756 14.5462C19.4269 14.6809 19.438 14.8284 19.4075 14.9697C19.363 15.1911 19.1457 15.7232 18.1141 15.9446C18.0539 16.1472 17.9937 16.3578 17.9335 16.5631C17.4596 18.2159 16.8993 20.1685 16.1007 21.211C16.2663 21.5546 16.3919 21.9173 16.4751 22.2913C16.695 23.2932 16.6479 24.5572 15.8598 25.1054C14.7471 25.8832 13.6579 26.1101 12.7991 25.7509C11.9403 25.3917 11.3826 24.5113 11.1025 23.1177C10.8825 21.9483 10.3798 21.0436 9.89021 20.1685ZM18.3 15.3424C18.7189 15.2046 18.9074 14.9994 18.9415 14.8346C18.9518 14.792 18.9496 14.7471 18.9352 14.7057C18.9207 14.6644 18.8947 14.6284 18.8603 14.6024C18.8312 14.5812 18.7964 14.5699 18.7608 14.57C18.699 14.5732 18.6396 14.5958 18.5906 14.6348C18.4598 14.8542 18.3618 15.0927 18.3 15.3424ZM16.8835 28.7379C16.4744 28.563 16.038 28.466 15.5954 28.4516C13.8961 28.3517 13.129 28.6974 13.0085 28.854C13.108 28.9485 13.616 29.1781 15.022 29.0836C15.6542 29.0563 16.2802 28.9428 16.8835 28.746V28.7379Z" fill="#FFB600"/>
</g>
</svg>
