<svg width="94" height="82" viewBox="0 0 94 82" fill="none" xmlns="http://www.w3.org/2000/svg">
<g id="Layer 2">
<path id="Vector" d="M91.2155 49.5582C94.1772 46.7603 93.8419 41.3842 90.6852 39.5353C91.5575 36.9167 90.1029 33.6967 87.5922 32.2658C86.4069 31.5903 87.7352 31.2294 87.9498 29.9315C88.1437 28.7587 88.2186 27.5161 88.0616 26.3313C87.7917 24.3253 86.9076 22.5158 85.3876 21.1996C84.6394 20.5552 83.777 20.0636 82.8473 19.7516C82.146 19.5169 80.9093 19.6162 80.5003 19.0241C80.0325 18.3514 79.98 16.8714 79.6777 16.0805C79.2857 15.0457 78.7737 14.0626 78.1527 13.1524C75.9929 10.0118 71.4911 8.83613 67.8347 9.67438C67.1183 8.27084 67.0965 6.26773 65.7163 5.48545C63.8118 4.40681 61.0105 4.35485 58.8429 4.34343C57.4296 3.84722 55.9884 4.47362 54.5227 4.65749C53.6286 4.55813 52.93 4.13216 52.0952 3.57714C50.8451 2.74575 49.6269 1.94234 48.1052 2.06568C47.3196 1.67682 46.4847 1.38046 45.5347 1.30852C42.8367 1.09953 40.3534 2.26724 38.0561 3.56914C36.212 4.61466 34.7395 4.76369 32.6663 4.40796C31.4258 4.19497 30.2042 4.03566 28.943 4.07106C26.6423 4.13558 24.2567 4.79738 22.5356 6.42705C22.1237 6.81705 21.8309 7.28356 21.4548 7.7004C20.5848 8.66026 20.0114 8.7619 18.8061 8.64713C17.6231 8.53293 16.511 8.4587 15.3325 8.69852C13.2903 9.11938 11.4064 10.1223 9.89857 11.5913C8.41883 12.0863 7.47723 13.4093 6.98492 15.0127C6.58648 16.3106 6.51328 17.6885 6.11205 18.9841C5.65326 20.463 4.64907 21.5297 3.68121 22.678C0.742406 26.1554 -0.131021 30.9462 1.95894 35.134C2.40991 36.0373 3.60521 37.1131 3.73485 38.1032C3.81309 38.7051 3.55995 39.5165 3.55995 40.1474C3.55641 40.7493 3.60089 41.3505 3.69294 41.945C4.04556 44.1445 5.00001 46.2578 6.46354 47.916C9.43811 51.285 12.9011 52.8929 19.247 50.28C19.7203 55.6995 22.81 58.0948 26.4601 60.1014C31.081 62.6446 36.0717 61.7619 41.0815 62.2078C44.2992 62.4933 46.9608 63.8569 48.8021 66.081C48.9032 66.2523 49.0005 66.4236 49.091 66.5977C49.6917 67.7535 50.1337 69.0582 50.9261 70.0946C51.0491 70.4943 51.162 70.9043 51.2514 71.3308C51.4808 72.4075 51.5825 73.5086 51.5542 74.6101C51.5202 75.7287 51.1379 76.9513 51.4425 78.051C52.0315 80.1803 54.963 80.5789 56.7836 80.8216C59.2201 81.1459 61.1195 80.5932 61.956 78.0379C62.4299 76.5887 61.7973 74.8117 61.875 73.258C64.9228 73.978 69.1954 73.7919 72.1465 73.0193C75.5894 72.1177 78.8272 70.6085 80.5215 67.3435C80.6081 67.1767 80.7981 66.7639 80.7869 66.6211C80.9277 66.2174 82.0621 64.6312 82.1124 64.1829C84.5366 63.8592 85.6631 63.8272 87.5469 62.1513C89.0831 60.7849 90.6679 57.6974 90.4633 55.6498C92.3924 54.8309 92.1605 54.6374 92.5399 52.4892C92.835 50.8305 92.4868 50.2377 91.2155 49.5582Z" fill="#AD9E9E"/>
<path id="Vector_2" d="M92.001 50.693C91.7775 50.0512 91.3684 49.5293 90.8834 49.0719C90.5347 48.7419 90.0965 48.4889 89.7702 48.1372C89.1902 47.5125 89.108 46.8809 88.7912 46.1386C88.1854 44.7197 87.1393 44.1903 85.7736 43.7181C84.956 43.4326 84.4777 43.2647 83.939 42.539C83.4578 41.8915 83.1924 41.2331 82.3592 41.0115C80.6353 40.5547 79.687 43.0101 78.0256 41.5374C76.4559 40.1459 76.1994 36.8055 75.706 34.8475C74.8454 31.434 74.4458 25.8575 70.5649 24.5179C69.2556 24.0657 68.0362 24.4283 66.9108 25.146C66.1586 25.6263 65.3495 26.4902 64.3676 26.1778C63.4942 25.9003 62.8963 24.7966 62.2844 24.1622C61.3182 23.1606 59.9374 22.3018 58.5096 22.669C56.87 23.091 56.6655 24.7697 56.0368 26.1053C55.0539 28.2021 52.9013 30.1909 50.5197 29.2202C48.979 28.5921 47.3473 27.6065 45.867 28.9832C44.6666 30.0995 44.5879 33.3748 42.2593 32.1677C40.7767 31.3992 40.7767 29.227 39.0673 28.6218C37.5993 28.1021 36.152 29.0877 35.435 30.3571C34.4448 32.1061 34.7784 34.5214 32.5666 35.298C28.1559 36.846 28.0961 30.3873 25.6133 28.3368C25.1216 27.9308 24.4823 28.097 24.0805 28.5287C23.4429 29.2139 23.1042 30.0013 22.8785 30.9069C22.6287 31.9108 22.6404 33.2863 21.9693 34.108C20.4666 35.9478 16.5566 33.5878 14.9439 32.8609C10.1336 30.6911 5.32446 27.1349 5.26635 21.2163C5.25964 20.5357 4.26048 20.5985 4.14872 21.2095C4.11631 21.3808 4.09284 21.5521 4.07049 21.7234C3.92451 21.7748 3.79427 21.8644 3.69273 21.9832C1.38538 24.6441 0.375606 28.3214 1.06071 31.8234C1.4435 33.7791 2.57733 35.3186 3.19259 37.1703C3.86316 39.1934 3.53291 41.4289 4.12692 43.4977C5.97883 49.9501 13.3423 54.0174 19.0707 50.1951C20.5074 53.2363 22.1442 56.2877 24.8522 58.32C27.9961 60.6782 32.1811 61.6273 36.0078 61.9173C38.0687 62.0744 40.1632 61.6712 42.2062 61.9287C44.3939 62.2045 46.2531 63.5527 47.5954 65.288C49.8044 68.143 50.1704 71.5303 51.1522 74.8981C51.9268 77.5567 53.6211 80.3923 56.6845 80.3695C59.4339 80.3495 61.9983 77.9581 61.9876 75.0945C61.9876 74.4316 61.6831 73.7549 61.7189 73.1074C61.7787 72.0191 62.1659 72.1658 63.0935 72.312C63.4422 72.3691 63.915 72.6101 64.2296 72.7225C66.1424 73.4043 68.1139 74.0695 70.1687 73.9485C73.4383 73.7561 76.9829 71.4703 78.9756 69.0589C80.0893 67.7108 81.45 64.3635 81.7138 64.2727C82.8046 63.9016 84.4274 63.7309 85.9921 62.9286C87.198 62.3107 88.2949 61.5222 88.9901 60.3122C89.4796 59.4603 89.6355 58.5232 89.9401 57.6011C90.2793 56.5801 90.828 55.6808 91.3081 54.7272C91.9334 53.4978 92.4788 52.0783 92.001 50.693Z" fill="#AD9E9E"/>
<path id="Vector_3" d="M62.7046 6.72254C62.2917 6.6466 61.8664 7.06515 61.9419 7.49283C62.095 8.34935 62.5566 9.10822 62.7242 9.96017C62.8963 10.8424 62.7309 11.7463 62.8863 12.6228C62.9857 13.1847 63.5663 13.4382 64.0329 13.1247C66.1665 11.6903 65.1808 7.1725 62.7046 6.72254Z" fill="#AD9E9E"/>
<path id="Vector_4" d="M61.9196 14.4783C61.749 14.6752 61.5566 14.8511 61.3462 15.0025C61.1417 15.1613 60.9411 15.34 60.7092 15.4559C60.2342 15.6923 60.3678 16.5203 60.9512 16.4215C61.3859 16.3472 61.8017 16.1931 62.1146 15.8653C62.4052 15.5592 62.5555 15.2035 62.6533 14.7941C62.7533 14.3658 62.1571 14.1808 61.9196 14.4783Z" fill="#AD9E9E"/>
<path id="Vector_5" d="M11.803 13.1139C11.1174 13.1025 10.6485 13.0979 10.1495 13.6547C9.68791 14.1686 9.56385 14.807 9.6365 15.487C9.68288 15.9181 10.3171 16.1517 10.5686 15.7508C10.8011 15.3797 11.0995 15.0485 11.3509 14.6882C11.4884 14.49 11.6438 14.3056 11.727 14.0732C11.8002 13.8688 11.8243 13.6735 11.9556 13.4913C12.0467 13.3623 11.9869 13.1173 11.803 13.1139Z" fill="#AD9E9E"/>
<path id="Vector_6" d="M84.9233 32.5888C84.6769 31.7894 84.0398 30.7942 83.1312 30.7588C82.6579 30.7399 82.1253 31.1065 82.2321 31.6661C82.3438 32.2371 82.735 32.6625 82.9066 33.2129C83.0665 33.7199 83.1762 34.2419 83.234 34.7712C83.2899 35.3993 84.065 35.5358 84.4338 35.1138C85.0798 34.3658 85.2145 33.531 84.9233 32.5888Z" fill="#AD9E9E"/>
<path id="Vector_7" d="M84.2877 37.0246C84.1933 36.5472 83.6798 36.2714 83.2668 36.5775C83.1367 36.6794 83.0256 36.8043 82.9388 36.9464C82.898 37.0155 82.8583 37.0857 82.8192 37.1559L82.8041 37.1833C82.7722 37.2353 82.7381 37.2856 82.7057 37.3369C82.5644 37.5654 82.499 37.7938 82.2738 37.9976C82.0737 38.1798 81.9865 38.4544 82.1285 38.7062C82.2553 38.9301 82.5482 39.0717 82.7946 38.9523C83.1567 38.7782 83.5512 38.5869 83.8234 38.282C84.1072 37.9639 84.3749 37.4671 84.2877 37.0246Z" fill="#AD9E9E"/>
<path id="Vector_8" d="M81.1629 64.7738C80.0213 67.4825 78.1212 69.7857 75.7016 71.3935C73.1149 73.1003 70.0392 73.8643 66.9719 73.641C65.1448 73.5079 63.3599 73.0166 61.7145 72.1941C61.1334 71.9029 60.6366 72.7411 61.2021 73.09C61.1588 73.0633 61.1233 73.0252 61.0993 72.9798C61.1091 72.994 61.1179 73.0089 61.1255 73.0244C61.1255 73.0244 61.116 72.9821 61.1429 73.0815C61.1746 73.2025 61.1985 73.3255 61.2144 73.4498C61.2573 73.8504 61.276 74.2533 61.2703 74.6563C61.2703 75.5185 61.2312 76.383 61.1512 77.2418C61.0076 78.7836 60.1454 81.0379 58.1655 80.8021C56.6567 80.6222 54.8311 80.3967 53.3217 79.8428C52.6204 79.5847 52.3605 78.8001 52.2287 78.0692C52.0403 77.0266 52.094 75.9508 52.047 74.8967C51.9962 73.7638 51.7308 72.6698 51.4083 71.5848C51.0332 70.3153 50.5418 69.0847 49.9409 67.9093C48.792 65.6823 47.111 63.5125 44.9021 62.3019C43.9074 61.7578 42.8154 61.51 41.69 61.5134C40.4176 61.5168 39.1524 61.7321 37.8766 61.7418C35.1258 61.7717 32.3838 61.4172 29.7269 60.6883C27.2927 60.015 24.8552 59.0146 23.0088 57.2051C21.533 55.7582 20.5875 53.8973 20.1477 51.8656C20.0419 51.3739 19.963 50.8765 19.9113 50.3758C19.8426 49.7186 18.8267 49.7118 18.896 50.3758C19.124 52.556 19.7632 54.6955 21.0463 56.4782C22.5607 58.5824 24.7182 59.9745 27.0815 60.9012C29.7671 61.9548 32.6484 62.5052 35.5123 62.7056C36.8984 62.8079 38.2899 62.8079 39.676 62.7056C40.9199 62.6091 42.1493 62.4104 43.3726 62.7719C44.5701 63.1253 45.6078 63.9396 46.4902 64.8184C47.4603 65.7891 48.2527 66.9191 48.9065 68.1302C50.0856 70.3155 50.9831 72.8616 51.0501 75.3729C51.0971 77.1522 50.9194 79.9758 52.8942 80.7804C53.7458 81.127 54.6824 81.2811 55.581 81.4416C56.4237 81.5939 57.2699 81.7239 58.1197 81.8316C60.3443 82.1171 61.7911 79.9433 62.0873 77.919C62.2057 77.1065 62.2476 76.2774 62.2722 75.4569C62.2974 74.6232 62.3382 73.7238 62.1459 72.905C62.0806 72.6258 61.9638 72.3488 61.7134 72.1941L61.201 73.09C64.2959 74.6354 67.8038 75.0925 71.1792 74.3902C74.2526 73.7478 77.0797 72.0736 79.2065 69.7239C80.3882 68.4224 81.3456 66.9257 82.038 65.2975C82.2945 64.691 81.4233 64.1623 81.1618 64.7738H81.1629Z" fill="#AD9E9E"/>
<path id="Vector_9" d="M42.3699 62.2244C47.8899 60.5639 53.6228 61.2537 59.2092 62.1479C61.7893 62.5619 64.3849 62.9096 66.9538 63.3938C69.3617 63.8472 71.7596 64.3646 74.1921 64.6649C76.8275 64.991 79.5702 65.0698 82.1379 64.2772C82.7615 64.0842 82.4961 63.0826 81.868 63.2768C79.6126 63.9734 77.2226 63.9494 74.899 63.7079C72.4509 63.4538 70.0373 62.9325 67.6244 62.47C65.0829 61.9829 62.5168 61.6386 59.9636 61.2257C57.1897 60.7769 54.4045 60.3458 51.5965 60.2036C48.399 60.0414 45.1802 60.2978 42.1 61.224C41.4747 61.4124 41.7407 62.4134 42.3699 62.2244Z" fill="#AD9E9E"/>
<path id="Vector_10" d="M48.4638 61.017C48.641 62.8671 49.8782 64.4522 51.6289 64.993L51.3261 64.2307C50.0643 66.7431 51.2702 69.8408 53.9223 70.6991C54.2282 70.7918 54.5423 70.8536 54.86 70.8835C55.1366 70.9143 55.4451 70.9143 55.6759 71.0953C55.9368 71.2998 56.1095 71.6361 56.3531 71.8674C56.919 72.4028 57.611 72.7793 58.3617 72.96C59.1124 73.1408 59.8962 73.1196 60.6365 72.8986C61.2618 72.7113 60.9958 71.7098 60.3665 71.8982C59.8777 72.0444 59.3633 72.0793 58.8598 72.0004C58.3563 71.9215 57.8758 71.7306 57.4523 71.4414C56.9841 71.1239 56.7225 70.6283 56.2928 70.2788C55.8631 69.9293 55.3322 69.9105 54.8024 69.8408C52.4605 69.5325 51.1282 66.8921 52.2023 64.7554C52.3537 64.4539 52.2252 64.0942 51.8988 63.9937C50.6136 63.594 49.6111 62.3949 49.4792 61.0182C49.416 60.3598 48.4001 60.3529 48.4638 61.0182V61.017Z" fill="#AD9E9E"/>
<path id="Vector_11" d="M20.0738 49.2721C19.8827 45.7724 20.4415 41.5926 23.7888 39.7614C24.5058 39.3691 25.2479 39.2189 26.052 39.1676C26.4723 39.1407 26.8841 39.0893 27.2675 38.8992C27.6653 38.7028 27.9878 38.379 28.3191 38.0872C29.5038 37.0417 30.9696 36.3799 32.503 36.0887C34.0409 35.7997 35.6255 35.9145 37.1082 36.4221C37.9078 36.6974 38.5717 37.185 39.335 37.5276C40.1833 37.9079 40.9221 37.6178 41.5815 37.0188C42.9606 35.7666 44.3197 34.5732 45.9961 33.7458C47.5759 32.9675 49.3317 32.5798 51.0813 32.7643C52.018 32.858 52.9264 33.1445 53.7519 33.6065C54.5901 34.0833 55.3512 34.8873 56.3314 34.2146C56.7265 33.9434 57.0612 33.5665 57.4233 33.2519C57.8062 32.9139 58.2122 32.6043 58.6382 32.3252C59.482 31.7827 60.4392 31.4081 61.4412 31.6519C61.5165 31.6718 61.5952 31.674 61.6714 31.6583C61.7477 31.6425 61.8194 31.6094 61.8813 31.5612C61.9432 31.513 61.9935 31.4512 62.0286 31.3802C62.0637 31.3093 62.0826 31.2312 62.0838 31.1517C62.1397 29.2023 63.6043 27.5104 65.4646 27.1484C66.1056 27.0233 65.834 26.0235 65.1947 26.148C62.8891 26.5968 61.1349 28.7695 61.069 31.1517L61.7111 30.6521C59.8279 30.1953 58.1436 31.2802 56.76 32.4713C56.4454 32.7426 56.1559 33.0795 55.8189 33.3193C55.3764 33.6339 54.9807 33.164 54.6097 32.9196C53.8727 32.445 53.0614 32.1033 52.2112 31.9095C48.508 31.0478 44.9092 32.742 42.1118 35.1391C41.7642 35.4372 41.4284 35.7478 41.0975 36.0647C40.8137 36.3365 40.4773 36.7174 40.0509 36.6808C39.6245 36.6443 39.2188 36.2731 38.8556 36.0738C38.4899 35.8757 38.1126 35.701 37.7257 35.5508C36.1872 34.9467 34.4845 34.7754 32.8562 34.9906C31.2613 35.2013 29.7011 35.7746 28.3856 36.7271C27.6827 37.2353 27.1004 38.0404 26.1968 38.1215C25.3222 38.2008 24.5321 38.2842 23.7173 38.6491C22.0336 39.404 20.7148 40.9103 19.9811 42.613C19.0797 44.7035 18.9372 47.0184 19.0607 49.2721C19.097 49.9357 20.1124 49.9402 20.0755 49.2721H20.0738Z" fill="#AD9E9E"/>
<path id="Vector_12" d="M24.5182 46.7191C28.0036 50.0144 33.6141 50.5358 37.6023 47.88L37.2111 47.9325C40.2813 48.3939 43.5939 48.31 46.5612 47.3044C48.8149 46.5398 51.1083 45.0427 51.6643 42.5228L50.7367 42.6467C52.9781 45.749 57.3614 45.6656 60.7339 45.2071C64.1264 44.7452 67.3681 43.4604 69.9856 41.1718C71.6844 39.6872 73.0428 37.8314 74.0912 35.8209C74.398 35.2316 73.5218 34.7074 73.2144 35.2972C71.5491 38.4949 69.0859 41.1215 65.8576 42.6678C63.0982 43.9891 59.89 44.5185 56.8557 44.3723C54.9557 44.2809 52.806 43.7744 51.6135 42.1231C51.3748 41.7936 50.7903 41.7719 50.6858 42.247C50.3103 43.9492 48.9798 45.0815 47.5006 45.8101C45.7001 46.6963 43.6224 47.0252 41.6442 47.1291C40.5278 47.1877 39.4087 47.1573 38.2969 47.0383C38.0052 47.0069 37.7068 46.9367 37.4145 46.9241C37.1558 46.9127 36.9954 47.0538 36.7831 47.1845C36.4073 47.4183 36.015 47.6232 35.6096 47.7978C34.0119 48.4767 32.2271 48.6874 30.5149 48.4601C28.559 48.2009 26.687 47.3564 25.2386 45.9871C24.7596 45.5343 24.0399 46.2658 24.5205 46.7203L24.5182 46.7191Z" fill="#AD9E9E"/>
<path id="Vector_13" d="M28.4634 50.4528C27.2374 51.4606 26.9429 53.4272 27.7688 54.7822C27.8386 54.8989 27.9499 54.9835 28.0794 55.0182C28.2089 55.0529 28.3465 55.035 28.4634 54.9683C28.6953 54.8296 28.7909 54.4973 28.6456 54.2586C28.6026 54.1878 28.5612 54.1158 28.5249 54.0416C28.5103 54.0119 28.4964 53.9845 28.4824 53.9514C28.5187 54.0302 28.4746 53.9308 28.4684 53.9148C28.4142 53.7665 28.3727 53.6137 28.3444 53.458C28.3444 53.458 28.3231 53.3193 28.331 53.3792C28.3388 53.4392 28.3248 53.3118 28.3237 53.2998C28.317 53.2165 28.3142 53.1331 28.3142 53.0503C28.3142 52.9675 28.3176 52.9001 28.3231 52.8253C28.3265 52.7837 28.3304 52.742 28.3354 52.7009C28.3259 52.7768 28.3354 52.7009 28.3427 52.6655C28.3696 52.5093 28.4086 52.3556 28.4595 52.2058C28.4701 52.1744 28.4819 52.1436 28.493 52.1121C28.5456 51.9648 28.4712 52.1567 28.5081 52.075C28.545 51.9934 28.578 51.9254 28.6199 51.8529C28.6618 51.7804 28.6942 51.7244 28.735 51.6622C28.735 51.6656 28.8104 51.5531 28.7803 51.5937C28.7501 51.6342 28.8244 51.5366 28.8317 51.5297C28.9381 51.4047 29.0556 51.2901 29.1826 51.1871C29.3966 51.0112 29.362 50.6367 29.1826 50.4534C28.9714 50.2375 28.6797 50.2775 28.4651 50.4534L28.4634 50.4528Z" fill="#AD9E9E"/>
<path id="Vector_14" d="M38.4613 56.2924C39.0531 56.4899 39.5951 56.2324 40.1595 56.068C40.8547 55.8664 41.5063 56.1822 42.1394 56.4637C43.4403 57.0421 44.71 57.3693 46.1349 57.1597C47.5219 56.9553 48.6541 56.277 49.7113 55.3668C50.2227 54.9254 50.7401 54.4457 51.3699 54.1882C51.9186 53.9638 52.5127 53.9335 53.095 53.9941C54.3243 54.1225 55.4884 54.6307 56.6965 54.874C58.0215 55.1401 59.2017 55.0179 60.4054 54.3749C61.072 54.0186 61.7063 53.6435 62.4652 53.535C63.21 53.4288 63.9739 53.535 64.7004 53.7063C66.003 54.014 67.2408 54.6302 68.5663 54.8237C69.8666 55.0139 71.1983 54.9242 72.4841 54.6701C73.7331 54.4235 75.01 53.9963 76.0522 53.2323C76.578 52.8463 76.0717 51.9464 75.5397 52.3364C73.7649 53.6377 71.2508 54.0426 69.1134 53.8524C67.8616 53.7382 66.6943 53.1775 65.4917 52.8412C64.0947 52.4512 62.578 52.2502 61.1978 52.8155C60.5367 53.0867 59.9466 53.5161 59.2805 53.7719C58.7217 53.9855 58.141 54.0243 57.5532 53.9661C56.3411 53.8456 55.1922 53.3517 54.0053 53.101C52.8083 52.848 51.5867 52.8475 50.4948 53.475C49.3286 54.1454 48.4987 55.2777 47.2347 55.7956C45.7901 56.3872 44.2668 56.2787 42.8547 55.6574C42.1612 55.3525 41.4146 54.9465 40.6407 54.9454C40.3054 54.9454 39.974 55.0384 39.6572 55.1435C39.3593 55.2423 39.0464 55.3965 38.734 55.2925C38.1115 55.0847 37.8449 56.0862 38.4641 56.2924H38.4613Z" fill="#AD9E9E"/>
<path id="Vector_15" d="M16.32 28.7376C18.9901 29.2424 21.0219 27.1074 22.4608 25.1088C23.2024 24.0759 23.9138 22.9961 24.8777 22.1636C25.8629 21.3145 27.1158 20.8948 28.3854 20.7743C29.8847 20.6315 31.394 20.8154 32.8799 21.0141C33.1538 21.0507 33.3829 20.7497 33.3873 20.4956C33.3907 20.1856 33.1504 20.0131 32.8799 19.9772C30.3776 19.6426 27.6377 19.3491 25.322 20.611C23.0554 21.8478 22.0725 24.3557 20.3217 26.1378C19.3527 27.1239 18.02 28.0096 16.5911 27.7366C15.9523 27.6156 15.6785 28.6154 16.3212 28.7365L16.32 28.7376Z" fill="#AD9E9E"/>
<path id="Vector_16" d="M34.2913 9.83332C35.5581 9.24632 37.0887 9.90298 37.548 11.2449C38.0465 12.6998 37.0389 14.0708 36.2834 15.2214C34.8171 17.4574 33.0887 19.8214 33.3888 22.6725C33.5318 24.0452 34.1018 25.2803 35.2083 26.1031C35.738 26.4959 36.2449 25.5966 35.7207 25.2078C34.7411 24.4803 34.365 23.2092 34.3689 22.0204C34.3745 20.5883 34.9378 19.2875 35.6486 18.0804C36.9965 15.7884 40.0403 12.7666 38.0269 9.98692C37.0362 8.6165 35.2664 8.24877 33.7799 8.93855C33.1854 9.21378 33.7012 10.108 34.2918 9.83446L34.2913 9.83332Z" fill="#AD9E9E"/>
<path id="Vector_17" d="M45.3831 6.36978C46.8545 7.41302 47.7603 9.19799 47.781 11.0224C47.7888 11.6893 48.8036 11.691 48.7964 11.0224C48.7712 8.8137 47.6664 6.72952 45.895 5.47387C45.6715 5.31456 45.3317 5.43161 45.2009 5.66002C45.0534 5.91811 45.1574 6.20933 45.3831 6.36978Z" fill="#AD9E9E"/>
<path id="Vector_18" d="M51.7135 9.43164C49.3849 9.16099 47.4363 11.4302 46.7551 13.4858C46.5802 14.0123 46.4729 14.5919 46.5266 15.1492C46.5534 15.4278 46.7406 15.6676 47.034 15.6676C47.2877 15.6676 47.5688 15.4295 47.5414 15.1492C47.5287 15.0163 47.5249 14.8828 47.5302 14.7495C47.5302 14.6792 47.5386 14.609 47.5458 14.5393C47.5581 14.4251 47.5391 14.5673 47.5576 14.4611C47.6066 14.1734 47.6814 13.8909 47.7811 13.6171C47.9954 13.0444 48.2972 12.51 48.6752 12.0337C49.443 11.0727 50.4981 10.3293 51.7085 10.4697C51.9812 10.5017 52.2164 10.2088 52.2164 9.95126C52.2164 9.64463 51.9823 9.46419 51.7085 9.43279L51.7135 9.43164Z" fill="#AD9E9E"/>
<path id="Vector_19" d="M46.7563 13.6715C44.9681 14.3413 43.6615 15.8265 42.9563 17.6115C42.1103 19.7528 42.2768 22.1664 42.7887 24.3677C42.9401 25.0169 43.9192 24.7417 43.7677 24.0919C43.3134 22.139 43.1603 20.0457 43.8448 18.1271C44.3869 16.6076 45.5162 15.2372 47.0262 14.6719C47.6347 14.4435 47.3715 13.4414 46.7563 13.6721V13.6715Z" fill="#AD9E9E"/>
<path id="Vector_20" d="M13.9967 18.2252C14.2527 16.7623 14.7936 15.353 15.7425 14.2105C16.5907 13.1895 17.6748 12.4215 18.8718 11.8813C20.1789 11.2897 21.6659 10.914 23.0987 10.9346C24.0358 10.9499 24.9635 11.1283 25.8419 11.4622C26.2471 11.6146 26.6371 11.8619 27.0825 11.8345C27.5005 11.8059 27.7788 11.5244 28.0073 11.1938C28.9992 9.76 30.7695 9.74059 32.3415 9.78227C32.9953 9.7994 32.9947 8.76188 32.3415 8.74475C30.8612 8.70592 29.1814 8.74475 27.9581 9.71547C27.6754 9.94392 27.4292 10.2159 27.2283 10.5217C27.1037 10.7067 27.0814 10.7958 26.8718 10.7753C26.6192 10.7507 26.2795 10.5223 26.0409 10.4327C25.1423 10.1077 24.1996 9.92793 23.2468 9.8999C20.3817 9.80626 17.192 11.0625 15.2395 13.2289C14.0526 14.5456 13.325 16.1953 13.0177 17.9494C12.9059 18.6021 13.8816 18.8819 13.9967 18.2252Z" fill="#AD9E9E"/>
<path id="Vector_21" d="M52.3639 9.75669C52.6371 8.13445 53.7112 6.91306 55.1429 6.21643C56.2706 5.6694 57.814 5.37762 58.9909 5.90409C59.5832 6.16904 60.1007 5.27598 59.5027 5.00818C57.9721 4.32296 56.1879 4.58963 54.7059 5.28454C53.0294 6.0714 51.7028 7.59199 51.3848 9.47861C51.2731 10.1313 52.2527 10.4122 52.3639 9.75441V9.75669Z" fill="#AD9E9E"/>
<path id="Vector_22" d="M44.1906 25.829C45.4043 25.8495 46.6046 26.4868 47.2769 27.5306C47.6327 28.0928 47.8408 28.7393 47.881 29.4076C47.9212 30.0759 47.7923 30.7435 47.5066 31.3461C47.2182 31.9428 48.0933 32.4687 48.3828 31.8697C49.1221 30.3428 49.0807 28.4476 48.1531 27.0076C47.7169 26.3386 47.1285 25.7877 46.4385 25.4017C45.7484 25.0158 44.9771 24.8064 44.1906 24.7915C43.5367 24.7806 43.5367 25.8193 44.1906 25.829Z" fill="#AD9E9E"/>
<path id="Vector_23" d="M36.0766 27.197C37.6692 27.981 38.0201 30.044 36.7678 31.3288C36.2196 31.8912 35.5714 32.4063 35.4211 33.2343C35.2775 34.0262 35.5479 34.8656 36.1559 35.3864C36.6538 35.8129 37.3752 35.0826 36.874 34.6532C36.2408 34.1108 36.2844 33.3051 36.8254 32.7152C37.435 32.0506 38.0603 31.5361 38.3699 30.6464C38.9556 28.9665 38.1464 27.0685 36.589 26.3016C36.0028 26.0161 35.4876 26.9075 36.0766 27.197Z" fill="#AD9E9E"/>
<path id="Vector_24" d="M24.1656 29.3917C24.8055 29.7103 25.4749 30.0495 25.9583 30.5988C26.5093 31.2269 26.364 32.0006 26.4685 32.7732C26.5785 33.5428 26.8632 34.2755 27.2999 34.9126C27.7365 35.5498 28.313 36.0737 28.9832 36.4425C29.5598 36.7554 30.0734 35.8606 29.4956 35.5466C28.8441 35.1965 28.3032 34.6646 27.9359 34.0128C27.5448 33.3145 27.4537 32.607 27.4213 31.8162C27.3877 31.0013 27.1139 30.299 26.54 29.724C26.0086 29.1907 25.338 28.8264 24.6747 28.4957C24.0902 28.2045 23.575 29.0987 24.1628 29.3917H24.1656Z" fill="#AD9E9E"/>
<path id="Vector_25" d="M14.0072 28.1352C11.3249 27.6921 8.44421 27.892 6.28383 29.7466C4.4716 31.3032 3.70491 33.915 4.79124 36.1419C5.35006 37.284 6.35592 37.9418 7.48584 38.3997C8.55988 38.8348 9.90104 39.1563 10.5504 40.2361C10.9103 40.8339 10.7583 41.4478 10.6621 42.0999C10.5672 42.7174 10.5861 43.3476 10.718 43.9579C10.9879 45.1896 11.7138 46.3105 12.6135 47.159C13.4495 47.9432 14.4165 48.5677 15.4685 49.0028C16.5587 49.4447 17.768 49.4762 18.9253 49.479C19.5786 49.479 19.5797 48.4438 18.9253 48.4421C17.9804 48.4421 17.0131 48.4272 16.1039 48.1354C15.326 47.8853 14.609 47.4097 13.9452 46.9363C13.0472 46.2934 12.2687 45.366 11.8776 44.3097C11.6862 43.8029 11.5958 43.2623 11.6116 42.7194C11.6345 42.0833 11.8535 41.4677 11.7893 40.8271C11.6775 39.7239 10.8834 38.8856 9.98207 38.3483C8.96391 37.7442 7.76134 37.5489 6.76833 36.8974C4.92424 35.6868 4.94156 32.9951 6.17431 31.3495C7.93289 29.002 11.0796 28.7005 13.7339 29.1385C14.3732 29.2441 14.6482 28.2449 14.0038 28.1387L14.0072 28.1352Z" fill="#AD9E9E"/>
<path id="Vector_26" d="M9.00458 28.4246C8.53741 26.1406 8.17083 23.47 9.50136 21.4012C10.605 19.6882 12.8034 18.8185 14.7497 19.277C15.3857 19.4272 15.6567 18.4274 15.0197 18.2772C12.6827 17.7262 10.1731 18.698 8.76093 20.6754C7.11634 22.984 7.49075 26.0852 8.02609 28.6998C8.15965 29.3531 9.13814 29.0767 9.00458 28.4246Z" fill="#AD9E9E"/>
<path id="Vector_27" d="M67.0649 10.0788C67.8506 13.2228 66.4245 16.5911 63.9914 18.5651C62.7179 19.5969 61.1498 20.0069 59.7578 20.82C58.2865 21.6794 57.2392 23.1612 57.4209 24.957C57.6226 26.9527 59.2599 28.451 61.2107 28.5167C61.8645 28.5389 61.8634 27.502 61.2107 27.4797C60.8202 27.4678 60.4361 27.3748 60.0818 27.2063C59.7276 27.0379 59.4106 26.7975 59.1502 26.4998C58.8898 26.2022 58.6914 25.8534 58.5671 25.4749C58.4428 25.0964 58.3953 24.696 58.4273 24.2981C58.5703 22.5605 60.1037 21.7285 61.5008 21.1044C62.9095 20.4763 64.2199 19.8356 65.3409 18.7319C66.4409 17.643 67.2805 16.3099 67.7947 14.8359C68.3656 13.221 68.4535 11.4691 68.0473 9.80299C67.8858 9.15661 66.9067 9.43069 67.0688 10.0788H67.0649Z" fill="#AD9E9E"/>
<path id="Vector_28" d="M67.2631 16.3853C70.5858 14.8339 74.6701 16.1101 76.5394 19.3129C77.4217 20.8244 77.7419 22.5403 77.5391 24.2807C77.3267 26.1016 76.7567 27.886 76.0951 29.5837C75.433 31.2796 74.6498 32.9236 73.752 34.5023C73.4245 35.0808 74.3013 35.6038 74.6288 35.0259C76.4611 31.7912 78.0789 28.147 78.5405 24.4109C79.0216 20.5023 76.8942 16.616 73.2385 15.2233C71.1395 14.4239 68.7819 14.5421 66.7529 15.4894C66.1594 15.7664 66.6746 16.6611 67.2647 16.3853H67.2631Z" fill="#AD9E9E"/>
<path id="Vector_29" d="M76.6163 52.8478C79.9228 50.6876 81.6283 46.4433 80.7667 42.5319L80.2771 43.1886C82.1553 43.156 83.9899 42.376 85.3109 41.0039C86.6817 39.5809 87.3724 37.6138 87.5132 35.6484C87.7725 32.0162 85.9435 28.014 82.3308 26.9359C80.4554 26.3763 78.4079 26.6847 76.8684 27.9375C76.3576 28.3532 77.0802 29.0829 77.5864 28.6712C78.7298 27.7405 80.3023 27.5144 81.7027 27.841C83.1953 28.1893 84.4442 29.1383 85.2718 30.4476C86.9818 33.1548 87.0142 37.1707 85.0388 39.7551C83.9022 41.2397 82.1162 42.1196 80.2771 42.1533C80.1994 42.1548 80.1231 42.1742 80.0538 42.2102C79.9845 42.2461 79.924 42.2975 79.877 42.3607C79.8299 42.4238 79.7974 42.4971 79.7819 42.5749C79.7664 42.6527 79.7684 42.7331 79.7876 42.81C80.547 46.2555 79.0153 50.0527 76.1045 51.9541C75.5557 52.3127 76.0642 53.2104 76.6163 52.85V52.8478Z" fill="#AD9E9E"/>
<path id="Vector_30" d="M80.6906 43.6543C82.508 44.1275 84.0671 45.3188 85.0253 46.9662C86.0904 48.7934 86.3218 51.0255 85.8228 53.076C85.6652 53.7241 86.6437 54.0005 86.8012 53.3518C87.3651 51.0381 87.1047 48.5102 85.9015 46.4426C84.8169 44.5799 83.0214 43.1787 80.9605 42.6522C80.3268 42.4906 80.0564 43.4905 80.6906 43.6526V43.6543Z" fill="#AD9E9E"/>
<path id="Vector_31" d="M86.2653 49.3768C87.6361 50.0082 89.159 50.2112 90.6425 49.9604C90.913 49.9153 91.0638 49.5715 90.9968 49.322C90.918 49.0279 90.6442 48.9149 90.3726 48.96C89.1542 49.1582 87.9056 48.9918 86.7777 48.4809C86.5274 48.3667 86.2318 48.4072 86.0831 48.667C85.9563 48.8886 86.0138 49.2615 86.2653 49.3768Z" fill="#AD9E9E"/>
<path id="Vector_32" d="M74.3876 64.3522C77.7461 64.4368 80.0914 61.2043 79.9495 57.9472L79.3069 58.4469C83.1956 59.8316 87.7422 58.7392 90.6385 55.7557C91.0989 55.2812 90.382 54.5474 89.921 55.0225C87.2627 57.7599 83.1353 58.7141 79.5768 57.447C79.2722 57.3385 78.9202 57.6252 78.9341 57.9472C79.052 60.6481 77.2091 63.3861 74.3876 63.3147C73.7338 63.2982 73.7344 64.3357 74.3876 64.3522Z" fill="#AD9E9E"/>
<path id="Vector_33" d="M34.4625 53.2873C35.503 54.8137 37.0833 55.9191 38.8715 56.3029C39.1392 56.36 39.4197 56.2223 39.4957 55.9408C39.565 55.6833 39.4108 55.3607 39.1409 55.303C37.6175 54.9758 36.2317 54.0736 35.3409 52.7637C35.1845 52.5353 34.8939 52.4286 34.6469 52.5776C34.4234 52.7106 34.3071 53.0561 34.4647 53.2873H34.4625Z" fill="#AD9E9E"/>
<path id="Vector_34" d="M36.6194 54.9957C35.2056 56.1572 34.6077 58.2179 35.1246 59.9863C35.3118 60.6242 36.2914 60.3524 36.1036 59.7105C35.6834 58.2779 36.1751 56.6842 37.3375 55.7295C37.5509 55.5536 37.5163 55.179 37.3375 54.9957C37.1262 54.7799 36.8345 54.8199 36.6194 54.9957Z" fill="#AD9E9E"/>
<path id="Vector_35" d="M28.1416 48.8167C27.8911 49.4898 27.7928 50.2121 27.8542 50.9295C27.8581 51.0661 27.911 51.1966 28.0029 51.296C28.0988 51.3923 28.2275 51.4468 28.3619 51.4479C28.617 51.4365 28.8955 51.2195 28.8703 50.9295C28.8549 50.7586 28.8491 50.587 28.853 50.4155C28.853 50.3425 28.8585 50.2694 28.8641 50.1963C28.8675 50.1477 28.872 50.0992 28.877 50.0507C28.8809 50.0136 28.91 49.9079 28.877 50.0432C28.9145 49.8902 28.9296 49.7309 28.9682 49.5767C29.0098 49.4115 29.0608 49.2489 29.1208 49.0897C29.2159 48.8356 29.0157 48.5095 28.7663 48.4518C28.476 48.3839 28.2434 48.5421 28.1416 48.8139V48.8167Z" fill="#AD9E9E"/>
<path id="Vector_36" d="M4.42509 37.508C1.46617 40.2848 3.07779 44.9579 5.20464 47.6993C7.23369 50.3146 10.3815 52.2674 13.7098 52.2823C15.8232 52.292 17.7707 51.4577 19.4197 50.1444C19.9344 49.7344 19.2113 49.0024 18.7017 49.4112C17.4058 50.443 15.8456 51.1374 14.1943 51.2322C12.7224 51.3167 11.2521 50.9655 9.9322 50.3037C7.31528 48.9904 5.1387 46.5921 4.21162 43.7502C3.60196 41.8819 3.63493 39.6595 5.14372 38.2423C5.62542 37.79 4.90623 37.058 4.42565 37.5091L4.42509 37.508Z" fill="#AD9E9E"/>
<path id="Vector_37" d="M4.37885 37.9039C2.39562 35.8054 1.27353 32.9275 1.33835 30.0062C1.40094 27.1689 2.60965 24.3829 4.60294 22.4118C5.09525 21.9253 5.65016 21.4891 6.0145 20.8849C6.41405 20.2226 6.45429 19.4414 6.61076 18.6991C6.89791 17.343 7.41416 16.0484 8.13632 14.8734C9.63336 12.4339 11.9554 10.6416 14.661 9.83705C16.067 9.4193 17.5369 9.27386 18.9952 9.40822C19.7451 9.47846 20.504 9.67717 21.2304 9.35969C21.8552 9.0856 22.2698 8.52944 22.7331 8.04637C24.5129 6.18716 27.0142 5.09311 29.5467 4.94921C30.8287 4.87033 32.1136 5.04283 33.3321 5.45741C34.0502 5.70466 34.723 5.97132 35.4646 5.65041C36.0675 5.39003 36.5129 4.87669 37.0058 4.45415C38.8554 2.86617 41.2421 1.9417 43.6372 1.72187C46.0703 1.49346 48.5771 1.93314 50.7464 3.10142C51.2894 3.39247 51.8086 3.72778 52.2988 4.10412C52.8018 4.4924 53.2561 5.01773 53.8741 5.2153C54.514 5.42143 55.1298 5.13136 55.7556 5.01773C56.2833 4.91889 56.8206 4.88534 57.3561 4.91781C57.7422 4.94293 58.3144 5.00631 58.5603 5.36091C58.9347 5.90108 59.8149 5.38375 59.4365 4.83729C58.7727 3.87857 57.4773 3.80948 56.4273 3.89284C55.7981 3.94424 55.2197 4.11497 54.6045 4.23088C53.9278 4.35765 53.3963 3.66387 52.9062 3.28186C50.8615 1.68875 48.3335 0.826523 45.7797 0.655221C43.2438 0.486773 40.647 1.02695 38.4034 2.25405C37.8455 2.55834 37.3124 2.90777 36.8091 3.29899C36.2905 3.6987 35.8373 4.23431 35.2852 4.58434C34.6057 5.01431 33.8714 4.52723 33.1868 4.3251C32.5449 4.13957 31.8878 4.01382 31.2237 3.94937C28.5267 3.68891 25.8256 4.40276 23.5903 5.96675C23.025 6.36399 22.4979 6.81521 22.0161 7.31433C21.5205 7.83167 21.1019 8.4889 20.3263 8.50831C19.5506 8.52773 18.784 8.33016 18.0106 8.32445C17.2592 8.32187 16.509 8.38645 15.7686 8.51745C12.8734 9.01651 10.1732 10.5805 8.29838 12.8891C7.3894 14.0072 6.66566 15.2699 6.15588 16.6269C5.90465 17.2934 5.71167 17.9813 5.57919 18.6826C5.42719 19.494 5.34784 20.2123 4.76388 20.8307C4.2643 21.3595 3.70772 21.8203 3.23496 22.377C2.76262 22.9319 2.34013 23.5291 1.9726 24.1614C0.843083 26.0978 0.273384 28.3214 0.329458 30.575C0.385532 32.8285 1.06509 35.0197 2.28945 36.8949C2.69439 37.5157 3.15336 38.0978 3.66078 38.6342C4.11565 39.115 4.83429 38.3812 4.37885 37.9005V37.9039Z" fill="#AD9E9E"/>
<path id="Vector_38" d="M17.3765 19.3623C19.5092 19.4618 21.5569 20.2463 23.2279 21.6041C23.4413 21.7794 23.7369 21.8176 23.9454 21.6041C24.1231 21.4231 24.1605 21.0468 23.9454 20.8709C22.0762 19.3305 19.7753 18.4389 17.3765 18.3254C16.7233 18.2951 16.7249 19.332 17.3765 19.3623Z" fill="#AD9E9E"/>
<path id="Vector_39" d="M19.6169 16.121C19.4122 17.1957 19.5493 18.3092 20.0081 19.2986C20.1198 19.5453 20.4864 19.627 20.7027 19.4848C20.9508 19.3215 21.0055 19.0388 20.8848 18.7756C20.877 18.759 20.8021 18.5815 20.839 18.6745C20.8206 18.6294 20.8033 18.5832 20.7865 18.5375C20.7492 18.4301 20.7146 18.3213 20.6826 18.2109C20.6524 18.1007 20.6267 17.9893 20.6038 17.8768C20.5937 17.8289 20.5853 17.7803 20.5775 17.7318C20.5719 17.6998 20.5669 17.6673 20.5624 17.6353C20.5686 17.6838 20.5691 17.689 20.5624 17.6513C20.5393 17.4317 20.5296 17.2109 20.5333 16.9901C20.5367 16.8758 20.5456 16.7616 20.5557 16.6474C20.5702 16.4881 20.5378 16.7491 20.5624 16.5903C20.5725 16.5258 20.5836 16.4613 20.5954 16.3968C20.6457 16.1313 20.5227 15.8258 20.2411 15.759C19.9902 15.7019 19.6705 15.836 19.6169 16.121Z" fill="#AD9E9E"/>
<path id="Vector_40" d="M84.8365 41.4498C86.2687 41.2957 87.7183 41.7599 88.775 42.7689C89.2517 43.2257 89.9714 42.4925 89.4925 42.0357C88.2537 40.8526 86.5308 40.2307 84.8365 40.4129C84.5644 40.442 84.3291 40.6304 84.3291 40.9313C84.3291 41.1889 84.5627 41.4795 84.8365 41.4498Z" fill="#AD9E9E"/>
<path id="Vector_41" d="M88.5782 42.0378C89.2656 41.219 90.0264 40.4677 90.8509 39.7938C91.0593 39.6225 91.0375 39.2353 90.8509 39.06C90.6273 38.8527 90.3552 38.8784 90.1334 39.06C89.309 39.7344 88.548 40.4859 87.8601 41.3047C87.6874 41.5102 87.6477 41.8385 87.8601 42.0378C88.0501 42.216 88.3932 42.2577 88.5782 42.0378Z" fill="#AD9E9E"/>
<path id="Vector_42" d="M37.7967 4.06103C40.0571 3.26162 42.4762 3.95768 44.4298 5.23446C44.9819 5.59534 45.4916 4.69771 44.9422 4.33911C42.7768 2.92358 40.0247 2.17556 37.5268 3.06062C36.9121 3.27818 37.177 4.2803 37.7967 4.06103Z" fill="#AD9E9E"/>
<path id="Vector_43" d="M60.9871 24.4855C60.8072 26.0244 61.0788 27.5781 61.7136 28.9805C61.8293 29.234 62.1874 29.298 62.4082 29.1661C62.663 29.0136 62.706 28.7093 62.5904 28.4569C62.0282 27.2184 61.8427 25.8365 62.0008 24.4855C62.0332 24.2069 61.7437 23.967 61.4928 23.967C61.1916 23.967 61.0179 24.2063 60.9854 24.4855H60.9871Z" fill="#AD9E9E"/>
<path id="Vector_44" d="M59.3774 5.78213C62.3464 3.89152 66.542 6.29147 67.0254 9.68498C67.1192 10.3434 68.0977 10.0636 68.0044 9.40918C67.4266 5.35216 62.3431 2.67128 58.865 4.88679C58.3118 5.2391 58.8209 6.13673 59.3774 5.78213Z" fill="#AD9E9E"/>
<path id="Vector_45" d="M67.6466 10.2045C69.911 9.55843 72.3307 9.81158 74.42 10.9131C76.482 12.0083 78.0434 13.9132 78.7866 16.1601C79.2039 17.4191 79.3589 18.7534 79.2415 20.0772C79.2091 20.449 79.5902 20.622 79.8841 20.5774C82.472 20.1834 85.1263 21.6812 86.4943 23.8956C88.0668 26.4411 88.0199 29.6925 86.9486 32.4208C86.8721 32.6166 86.9972 32.9158 87.1822 33.0066C89.4666 34.1281 90.7223 36.9237 90.0176 39.4219C89.9338 39.7183 90.1752 40.114 90.5072 40.078C92.5938 39.853 92.781 42.933 92.8681 44.3805C92.9687 46.0605 92.6687 48.3022 90.8721 48.9652C90.4502 49.1205 90.3809 49.6504 90.7508 49.9131C91.6812 50.5663 92.2037 51.8094 91.9657 52.948C91.7298 54.07 90.8531 54.9499 89.7746 55.228C89.484 55.3034 89.2716 55.7202 89.4717 55.9897C90.8598 57.8929 88.9218 60.0399 87.5538 61.243C85.9757 62.6277 83.8595 63.7806 81.7288 63.2416C81.0945 63.0817 80.824 64.0815 81.4588 64.242C84.0154 64.8866 86.4966 63.5659 88.3781 61.8814C89.2979 61.0574 90.1803 60.1067 90.6469 58.9333C91.09 57.8193 91.0699 56.4574 90.3479 55.4684L90.0445 56.2278C91.4862 55.8555 92.6988 54.6153 92.9676 53.1033C93.2498 51.5182 92.5507 49.9216 91.2632 49.0166L91.142 49.9644C93.4644 49.1079 94.0338 46.4716 93.8723 44.2155C93.7857 43.0124 93.6907 41.6871 93.1129 40.6096C92.6044 39.6611 91.5991 38.9228 90.5072 39.0405L90.9967 39.6966C91.8181 36.7844 90.3775 33.4274 87.6941 32.1101C87.7723 32.3054 87.8502 32.5007 87.9277 32.696C88.8698 30.2977 89.0487 27.4998 88.1668 25.0519C87.7647 23.9199 87.134 22.8871 86.3156 22.0205C85.4973 21.1539 84.5097 20.4729 83.4169 20.0219C82.212 19.5292 80.8998 19.3754 79.617 19.5765L80.2591 20.0767C80.4859 17.4877 79.7064 14.8474 78.1579 12.7906C76.586 10.7024 74.2412 9.32342 71.693 8.93799C70.253 8.71371 68.7828 8.80421 67.3795 9.20351C66.7514 9.38452 67.0185 10.3855 67.6494 10.2039L67.6466 10.2045Z" fill="#AD9E9E"/>
</g>
</svg>
